# xmcd
# Copyright (C) 1995-1998 Ti Kan
#
# Track frame offsets:
#       150
#       17475
#       31500
#       45225
#       63525
#       76275
#       90750
#       108900
#       124350
#       140850
#       157425
#       172875
#       189900
#       206025
#       223397
#       242372
#       264047
#       278126
#       292976
#
# Disc length: 4152 seconds
#
# Revision: 18
# Processed by: cddbd v1.5.2PL0 Copyright (c) Steve Scherf et al.
# Submitted via: CD-Transfer v1.0
#
DISCID=01103613
DTITLE=Zaho Feat. Tunisiano - 
DYEAR=2008
DGENRE=
TTITLE0=Umbrella (Album Version)
TTITLE1=This Is The Life (Re-Issue)
TTITLE2=In And Out Of Love (Radio Edit)
TTITLE3=Into The Nightlife
TTITLE4=Au Moment Des Amours
TTITLE5=Next Plane Home (Radio Version)
TTITLE6=Indestructible
TTITLE7=After The Rain (Orginal Radio Edit)
TTITLE8=After The Rain (Fedo Mix Radio)
TTITLE9=Cheated On Me (Album Version)
TTITLE10=Spiralling (Radio Edit)
TTITLE11=We Break The Dawn
TTITLE12=We Break The Dawn (Remix)
TTITLE13=Miss Independent
TTITLE14=Alles N3eu (Single Version)
TTITLE15=Send Your Love (Art Of Peace Mix)
TTITLE16=Moving Mountains (Full Phat Remix Edit)
TTITLE17=Changes
TTITLE18=La Roue Tourne
EXTD=
EXTT0=
EXTT1=
EXTT2=
EXTT3=
EXTT4=
EXTT5=
EXTT6=
EXTT7=
EXTT8=
EXTT9=
EXTT10=
EXTT11=
EXTT12=
EXTT13=
EXTT14=
EXTT15=
EXTT16=
EXTT17=
EXTT18=
PLAYORDER=
